HIERARCHY
ROOT hip
{
  OFFSET 0 0 0
  CHANNELS 6 Xposition Yposition Zposition Zrotation Yrotation Xrotation
  JOINT abdomen
  {
    OFFSET 0 20.6881 -0.73152
    CHANNELS 3 Zrotation Xrotation Yrotation
    JOINT chest
    {
      OFFSET 0 11.7043 -0.48768
      CHANNELS 3 Zrotation Xrotation Yrotation
      JOINT neck
      {
        OFFSET 0 22.1894 -2.19456
        CHANNELS 3 Zrotation Xrotation Yrotation
        JOINT head
        {
          OFFSET -0.24384 7.07133 1.2192
          CHANNELS 3 Zrotation Xrotation Yrotation
          JOINT leftEye
          {
            OFFSET 4.14528 8.04674 8.04672
            CHANNELS 3 Zrotation Xrotation Yrotation
            End Site
            {
              OFFSET 1 0 0
            }
          }
          JOINT rightEye
          {
            OFFSET -3.6576 8.04674 8.04672
            CHANNELS 3 Zrotation Xrotation Yrotation
            End Site
            {
              OFFSET 1 0 0
            }
          }
        }
      }
      JOINT rCollar
      {
        OFFSET -2.68224 19.2634 -4.8768
        CHANNELS 3 Zrotation Xrotation Yrotation
        JOINT rShldr
        {
          OFFSET -8.77824 -1.95073 1.46304
          CHANNELS 3 Zrotation Xrotation Yrotation
          JOINT rForeArm
          {
            OFFSET -28.1742 -1.7115 0.48768
            CHANNELS 3 Zrotation Xrotation Yrotation
            JOINT rHand
            {
              OFFSET -22.5879 0.773209 7.07136
              CHANNELS 3 Zrotation Xrotation Yrotation
              JOINT rThumb1
              {
                OFFSET -1.2192 -0.487915 3.41376
                CHANNELS 3 Zrotation Xrotation Yrotation
                JOINT rThumb2
                {
                  OFFSET -3.37035 -0.52449 3.41376
                  CHANNELS 3 Zrotation Xrotation Yrotation
                  End Site
                  {
                    OFFSET -1.78271 -1.18214 1.43049
                  }
                }
              }
              JOINT rIndex1
              {
                OFFSET -7.75947 0.938293 5.60832
                CHANNELS 3 Zrotation Xrotation Yrotation
                JOINT rIndex2
                {
                  OFFSET -2.54057 -0.884171 1.56538
                  CHANNELS 3 Zrotation Xrotation Yrotation
                  End Site
                  {
                    OFFSET -1.62519 -0.234802 1.16502
                  }
                }
              }
              JOINT rMid1
              {
                OFFSET -8.24714 1.18213 3.41376
                CHANNELS 3 Zrotation Xrotation Yrotation
                JOINT rMid2
                {
                  OFFSET -3.10165 -0.590103 1.0647
                  CHANNELS 3 Zrotation Xrotation Yrotation
                  End Site
                  {
                    OFFSET -2.48547 -0.328903 0.83742
                  }
                }
              }
              JOINT rRing1
              {
                OFFSET -8.82822 0.546677 1.51678
                CHANNELS 3 Zrotation Xrotation Yrotation
                JOINT rRing2
                {
                  OFFSET -2.60934 -0.819778 -0.0198488
                  CHANNELS 3 Zrotation Xrotation Yrotation
                  End Site
                  {
                    OFFSET -2.33842 -0.294052 0.168128
                  }
                }
              }
              JOINT rPinky1
              {
                OFFSET -8.27202 -0.0477905 -0.4584
                CHANNELS 3 Zrotation Xrotation Yrotation
                JOINT rPinky2
                {
                  OFFSET -1.82734 -0.647385 -0.700984
                  CHANNELS 3 Zrotation Xrotation Yrotation
                  End Site
                  {
                    OFFSET -1.69225 -0.51767 -0.607171
                  }
                }
              }
            }
          }
        }
      }
      JOINT lCollar
      {
        OFFSET 2.68224 19.2634 -4.8768
        CHANNELS 3 Zrotation Xrotation Yrotation
        JOINT lShldr
        {
          OFFSET 8.77824 -1.95073 1.46304
          CHANNELS 3 Zrotation Xrotation Yrotation
          JOINT lForeArm
          {
            OFFSET 28.1742 -1.7115 0.48768
            CHANNELS 3 Zrotation Xrotation Yrotation
            JOINT lHand
            {
              OFFSET 22.5879 0.773209 7.07136
              CHANNELS 3 Zrotation Xrotation Yrotation
              JOINT lThumb1
              {
                OFFSET 1.2192 -0.487915 3.41376
                CHANNELS 3 Zrotation Xrotation Yrotation
                JOINT lThumb2
                {
                  OFFSET 3.37035 -0.52449 3.41376
                  CHANNELS 3 Zrotation Xrotation Yrotation
                  End Site
                  {
                    OFFSET 1.78271 -1.18214 1.43049
                  }
                }
              }
              JOINT lIndex1
              {
                OFFSET 7.75947 0.938293 5.60832
                CHANNELS 3 Zrotation Xrotation Yrotation
                JOINT lIndex2
                {
                  OFFSET 2.54057 -0.884171 1.56538
                  CHANNELS 3 Zrotation Xrotation Yrotation
                  End Site
                  {
                    OFFSET 1.62519 -0.234802 1.16502
                  }
                }
              }
              JOINT lMid1
              {
                OFFSET 8.24714 1.18213 3.41376
                CHANNELS 3 Zrotation Xrotation Yrotation
                JOINT lMid2
                {
                  OFFSET 3.10165 -0.590103 1.0647
                  CHANNELS 3 Zrotation Xrotation Yrotation
                  End Site
                  {
                    OFFSET 2.48547 -0.328903 0.83742
                  }
                }
              }
              JOINT lRing1
              {
                OFFSET 8.82822 0.546677 1.51678
                CHANNELS 3 Zrotation Xrotation Yrotation
                JOINT lRing2
                {
                  OFFSET 2.60934 -0.819778 -0.0198488
                  CHANNELS 3 Zrotation Xrotation Yrotation
                  End Site
                  {
                    OFFSET 2.33842 -0.294052 0.168128
                  }
                }
              }
              JOINT lPinky1
              {
                OFFSET 8.27202 -0.0477905 -0.4584
                CHANNELS 3 Zrotation Xrotation Yrotation
                JOINT lPinky2
                {
                  OFFSET 1.82734 -0.647385 -0.700984
                  CHANNELS 3 Zrotation Xrotation Yrotation
                  End Site
                  {
                    OFFSET 1.69225 -0.51767 -0.607171
                  }
                }
              }
            }
          }
        }
      }
    }
  }
  JOINT rButtock
  {
    OFFSET -8.77824 4.35084 1.2192
    CHANNELS 3 Zrotation Xrotation Yrotation
    JOINT rThigh
    {
      OFFSET 0 -1.70687 -2.19456
      CHANNELS 3 Zrotation Xrotation Yrotation
      JOINT rShin
      {
        OFFSET 0 -36.8199 0.73152
        CHANNELS 3 Zrotation Xrotation Yrotation
        JOINT rFoot
        {
          OFFSET 0.73152 -45.1104 -5.12064
          CHANNELS 3 Zrotation Xrotation Yrotation
          End Site
          {
            OFFSET -1.1221 -3.69964 12.103
          }
        }
      }
    }
  }
  JOINT lButtock
  {
    OFFSET 8.77824 4.35084 1.2192
    CHANNELS 3 Zrotation Xrotation Yrotation
    JOINT lThigh
    {
      OFFSET 0 -1.70687 -2.19456
      CHANNELS 3 Zrotation Xrotation Yrotation
      JOINT lShin
      {
        OFFSET 0 -36.8199 0.73152
        CHANNELS 3 Zrotation Xrotation Yrotation
        JOINT lFoot
        {
          OFFSET -0.73152 -45.1104 -5.12064
          CHANNELS 3 Zrotation Xrotation Yrotation
          End Site
          {
            OFFSET 1.1221 -3.69964 12.103
          }
        }
      }
    }
  }
}
MOTION
Frames:	4
Frame Time:	0.03333
0.011248627871923421 62.33376119582958 0.12167565791725168 -3.392359733581543 -2.03383469581604 7.846661567687988 -2.3650193214416504 14.623944282531738 3.7194583415985107 2.7960073947906494 -9.721742630004883 1.2330944538116455 -5.049530506134033 14.564451217651367 -3.916485071182251 9.246631622314453 -22.2344913482666 -5.630911827087402 0.0032160626724362373 -0.0052826302126049995 0.056949954479932785 0.012889835052192211 -0.02441740781068802 0.0016611741157248616 0.01462480053305626 0.006983503699302673 0.04411584511399269 46.63848876953125 39.7895622253418 17.724369049072266 -25.646718978881836 -26.09205436706543 68.17405700683594 -1.5823043584823608 -10.110730171203613 -1.4964598417282104 -0.024990877136588097 0.0010440116748213768 -0.011521533131599426 0.03510747849941254 0.01110109779983759 0.007255125790834427 0.006178343668580055 0.017534775659441948 0.013951106928288937 7.721912860870361 5.4372735023498535 0.40055689215660095 -0.01142706535756588 0.017448926344513893 -0.03685718774795532 2.9259676933288574 0.9767577052116394 0.12498070299625397 0.007186224218457937 -0.02315520867705345 -0.01256495714187622 10.300141334533691 0.7485432624816895 0.036443520337343216 0.026930365711450577 0.00106909335590899 -0.022782908752560616 2.1972334384918213 -0.707179605960846 -0.21768949925899506 0.0027906715404242277 -0.052851613610982895 0.003691944293677807 -54.558753967285156 40.725460052490234 -26.275293350219727 24.817293167114258 -23.594850540161133 -65.39820861816406 1.9470332860946655 -14.326876640319824 2.045335054397583 -0.028149647638201714 0.031517308205366135 0.023574892431497574 -0.020062487572431564 -0.016728397458791733 0.035624001175165176 -0.007452932186424732 -0.04267595335841179 0.004248273093253374 -7.714570999145508 5.464338779449463 -0.37517261505126953 -0.0012886039912700653 0.030831990763545036 -0.012008989229798317 -2.9042258262634277 0.978764533996582 -0.09535135328769684 0.008331363089382648 -0.017545023933053017 0.019559316337108612 -10.23109245300293 0.7440053224563599 -0.0069956099614501 -0.04118739068508148 -0.03514834865927696 -0.010338375344872475 -2.2115225791931152 -0.7362486720085144 0.19764713943004608 -0.018849242478609085 -0.0074820807203650475 0.04097161069512367 -24.74627685546875 -42.028343200683594 -18.67115592956543 -1.3481746912002563 65.09246826171875 2.5133845806121826 -4.5897135734558105 -11.667973518371582 -9.698848724365234 0.031893208622932434 -0.0028195322956889868 -0.015594122000038624 29.949695587158203 -42.5189323425293 20.963653564453125 1.469818115234375 65.9779281616211 -2.5954442024230957 5.000573635101318 -11.616829872131348 13.18412971496582
0.03113509716638578 62.55522324947807 0.24814920356131998 -3.4559457302093506 -2.019930601119995 7.730513095855713 -2.31838059425354 14.650558471679688 3.529994249343872 2.7488744258880615 -9.67867660522461 1.1524567604064941 -4.981968879699707 14.5408935546875 -3.9752373695373535 9.187295913696289 -22.203706741333008 -5.656045436859131 0.03201088681817055 -0.024093084037303925 0.09204243868589401 -0.00794304721057415 -0.021687326952815056 -0.010510154999792576 0.020070528611540794 0.008797841146588326 0.08794281631708145 46.490474700927734 39.7479362487793 18.082590103149414 -25.693876266479492 -26.1029109954834 68.05230712890625 -1.5893173217773438 -10.209433555603027 -1.4803537130355835 -0.05495566874742508 -0.009868287481367588 0.017506256699562073 0.00511943781748414 -0.0025030586402863264 0.018310440704226494 0.03790375590324402 0.037481870502233505 0.04201814532279968 7.691206455230713 5.441171169281006 0.39006274938583374 -0.02262149751186371 -0.013987141661345959 -0.04048304632306099 2.902168035507202 0.9897528886795044 0.15282568335533142 0.029786337167024612 -0.04942162707448006 -0.03743105009198189 10.323036193847656 0.7332659363746643 0.024108126759529114 0.07203026860952377 0.008524389937520027 -0.010137860663235188 2.202228307723999 -0.7061465978622437 -0.23294679820537567 -0.020891280844807625 -0.06575296074151993 0.021690120920538902 -54.61821365356445 40.69969177246094 -26.30587387084961 24.78963279724121 -23.66916847229004 -65.6295394897461 1.8697845935821533 -14.193490028381348 1.9879008531570435 -0.051465000957250595 0.05623948201537132 0.037247054278850555 0.0034150402061641216 0.016199277713894844 0.037338510155677795 -0.03291286528110504 -0.027718916535377502 -0.020086651667952538 -7.713342666625977 5.445473670959473 -0.35350701212882996 -0.008986695669591427 0.0008770303102210164 0.0007626509177498519 -2.935020923614502 0.9388593435287476 -0.09184426069259644 0.019980935379862785 -0.013640573248267174 0.06187772378325462 -10.18216609954834 0.7896049618721008 -0.008738215081393719 -0.061113324016332626 -0.037331473082304 -0.03224945440888405 -2.201028347015381 -0.7006243467330933 0.19018270075321198 -0.013488265685737133 0.019563106819987297 0.07144144922494888 -24.76378631591797 -42.2607421875 -18.658126831054688 -1.3806602954864502 65.23285675048828 2.4376144409179688 -4.478134632110596 -11.310601234436035 -9.495833396911621 0.033372074365615845 -0.007608369458466768 -0.0320124626159668 29.71892738342285 -42.47340393066406 20.683856964111328 1.467332124710083 65.78903198242188 -2.5956249237060547 5.06195592880249 -11.211875915527344 13.192811965942383
-0.04026892771654401 55.88030476986722 0.963277800346177 3.722571611404419 23.047304153442383 7.7933669090271 -12.290020942687988 14.374201774597168 -1.7549344301223755 6.03153657913208 -10.758811950683594 -0.14750045537948608 -7.324258327484131 16.16221046447754 -7.72696590423584 11.87092399597168 -25.458131790161133 -12.92203140258789 0.21208830177783966 -0.05763329938054085 0.2000618278980255 0.07015451788902283 -0.14789597690105438 -0.06091983616352081 -0.04151007533073425 0.02530510723590851 -0.048915665596723557 48.60457229614258 33.71027374267578 11.276747703552246 -26.88829803466797 -28.4180965423584 69.08335876464844 -0.10956385731697083 3.517573833465576 0.5246365666389465 -0.10993127524852753 0.0875752717256546 0.04911821335554123 0.08411411941051483 0.1810673028230667 0.084934301674366 0.021264908835291862 0.1791466623544693 -0.11235151439905167 7.761683464050293 5.180416107177734 0.6293926239013672 0.0378839373588562 0.13607364892959595 0.20975644886493683 3.022510051727295 1.005841612815857 0.3434869647026062 -0.10676337033510208 -0.13373935222625732 0.015115093439817429 10.265278816223145 0.7411116361618042 0.16206154227256775 0.00922461599111557 -0.07761470228433609 -0.18230369687080383 2.1421329975128174 -0.31288111209869385 -0.1459852010011673 -0.02828139066696167 -0.019191952422261238 -0.1146140843629837 -42.07540512084961 53.361915588378906 -38.1837158203125 27.855762481689453 -36.56622314453125 -78.87153625488281 1.9329829216003418 -31.970233917236328 5.184105396270752 -0.06786368787288666 0.08695414662361145 0.08492005616426468 -0.007817852310836315 0.04684339463710785 0.0856032744050026 -0.09007237106561661 -0.06173587217926979 -0.1488073319196701 -7.619333744049072 5.532543659210205 -0.22242386639118195 -0.13755781948566437 -0.010174598544836044 -0.06103739142417908 -3.0043582916259766 0.9809585213661194 -0.4008583724498749 -0.01015613041818142 -0.06521005183458328 0.1668540984392166 -10.297000885009766 0.6897482872009277 0.041618712246418 -0.1386387199163437 -0.2239372581243515 0.2113785594701767 -2.207428216934204 -0.8833194375038147 0.08892755955457687 -0.02460426837205887 0.11911832541227341 0.03185316175222397 -66.93273162841797 -61.18312454223633 -64.3184585571289 -7.202739715576172 82.07865142822266 7.535203456878662 -0.4469340145587921 -3.6527602672576904 3.099311590194702 0.030513087287545204 -0.14114683866500854 -0.09915333241224289 13.124482154846191 -2.351961851119995 9.239611625671387 0.20237106084823608 46.931419372558594 -2.915973424911499 10.930829048156738 -17.401918411254883 32.110069274902344
-0.14909790693950084 56.14298701515674 1.632985852593861 5.083068370819092 21.04267120361328 7.869475364685059 -10.513433456420898 12.225595474243164 -2.116957664489746 5.8934645652771 -9.548095703125 -0.6973422765731812 -7.342645168304443 16.17557716369629 -8.138897895812988 11.46921157836914 -28.286418914794922 -12.14617919921875 -0.012828479520976543 -0.1092708632349968 0.30577415227890015 -0.014484047889709473 0.06825749576091766 0.09823249280452728 0.2853430211544037 0.0634169727563858 0.07381224632263184 47.50931930541992 32.17814254760742 6.834496974945068 -27.635982513427734 -29.50493049621582 66.88178253173828 -0.08291293680667877 3.8574953079223633 0.2837632894515991 -0.1294863075017929 -0.1762256920337677 -0.1487104892730713 -0.09442755579948425 0.24099794030189514 0.11649037897586823 0.07081321626901627 0.023460330441594124 -0.09119419753551483 7.894281387329102 5.379342555999756 0.3582189083099365 0.03772948682308197 0.2160240262746811 -0.12330649048089981 3.047161340713501 1.3362294435501099 -0.09845925122499466 -0.0451444610953331 -0.054959122091531754 -0.005652938969433308 10.216386795043945 0.6506297588348389 -0.04441465437412262 0.3775685131549835 -0.04093784838914871 0.08738651126623154 2.044881820678711 -0.44557812809944153 -0.08963528275489807 -0.13230308890342712 -0.14452600479125977 -0.01113663986325264 -38.60411834716797 50.20767593383789 -42.66700744628906 28.322412490844727 -37.497520446777344 -78.85379028320312 0.9511461853981018 -30.055177688598633 4.837780952453613 0.011503571644425392 -0.01428130455315113 0.1612275391817093 -0.42568036913871765 -0.13272720575332642 -0.3083585202693939 0.09125960618257523 -0.049304258078336716 0.11246351897716522 -7.533692359924316 5.276838779449463 -0.4916188716888428 0.09190559387207031 -0.14255885779857635 -0.05428396537899971 -3.18647837638855 0.7174308896064758 -0.13396306335926056 0.07741416245698929 0.23986926674842834 0.1693403571844101 -10.068960189819336 0.6511034965515137 0.0026574486400932074 -0.1579826921224594 -0.1158774346113205 -0.07769123464822769 -2.3392629623413086 -0.5643136501312256 -0.11266092211008072 -0.038658350706100464 0.11310279369354248 0.004288044758141041 -62.22040557861328 -61.2849235534668 -64.97740173339844 -5.626781463623047 80.34783172607422 6.052429676055908 -2.678820848464966 -4.1520562171936035 -4.667041778564453 0.15827693045139313 0.060153212398290634 -0.020101042464375496 13.29817008972168 1.4289630651474 8.636171340942383 -0.061227504163980484 44.590476989746094 -2.5087831020355225 10.81863784790039 -16.656661987304688 32.31962203979492
